HIERARCHY
ROOT hip
{
	OFFSET 0.000000 0.000000 0.000000 
	CHANNELS 6 Xposition Yposition Zposition Xrotation Zrotation Yrotation
	JOINT abdomen
	{
		OFFSET 0.000000 3.402643 0.000000 
		CHANNELS 3 Xrotation Zrotation Yrotation
		JOINT chest
		{
			OFFSET 0.000000 8.438565 -0.680529 
			CHANNELS 3 Xrotation Zrotation Yrotation
			JOINT neck
			{
				OFFSET 0.000000 10.207942 -0.272212 
				CHANNELS 3 Xrotation Zrotation Yrotation
				JOINT head
				{
					OFFSET 0.000000 3.130431 0.000000 
					CHANNELS 3 Xrotation Zrotation Yrotation
					End Site
					{
						OFFSET 0.000000 3.130435 0.000000 
					}
				}
			}
			JOINT lCollar
			{
				OFFSET 3.470700 6.669187 -0.816635 
				CHANNELS 3 Yrotation Zrotation Xrotation
				JOINT lShldr
				{
					OFFSET 3.198488 0.000000 0.000000 
					CHANNELS 3 Zrotation Yrotation Xrotation
					JOINT lForeArm
					{
						OFFSET 10.139888 0.000000 0.000000 
						CHANNELS 3 Yrotation Zrotation Xrotation
						JOINT lHand
						{
							OFFSET 8.370511 0.000000 0.000000 
							CHANNELS 3 Zrotation Yrotation Xrotation
							End Site
							{
								OFFSET 4.083176 0.000000 0.000000 
							}
						}
					}
				}
			}
			JOINT rCollar
			{
				OFFSET -3.470700 6.669187 -0.816635 
				CHANNELS 3 Yrotation Zrotation Xrotation
				JOINT rShldr
				{
					OFFSET -3.198488 0.000000 0.000000 
					CHANNELS 3 Zrotation Yrotation Xrotation
					JOINT rForeArm
					{
						OFFSET -10.139888 0.000000 0.000000 
						CHANNELS 3 Yrotation Zrotation Xrotation
						JOINT rHand
						{
							OFFSET -8.370511 0.000000 0.000000 
							CHANNELS 3 Zrotation Yrotation Xrotation
							End Site
							{
								OFFSET -4.083176 0.000000 0.000000 
							}
						}
					}
				}
			}
		}
	}
	JOINT lThigh
	{
		OFFSET 5.308129 -1.633274 1.361059 
		CHANNELS 3 Xrotation Zrotation Yrotation
		JOINT lShin
		{
			OFFSET -2.041588 -20.007561 0.000000 
			CHANNELS 3 Xrotation Zrotation Yrotation
			JOINT lFoot
			{
				OFFSET 0.000000 -19.190928 -1.224953 
				CHANNELS 3 Xrotation Yrotation Zrotation
				End Site
				{
					OFFSET 0.000000 -2.449906 4.627600 
				}
			}
		}
	}
	JOINT rThigh
	{
		OFFSET -5.308129 -1.633274 1.361059 
		CHANNELS 3 Xrotation Zrotation Yrotation
		JOINT rShin
		{
			OFFSET 2.041588 -20.007561 0.000000 
			CHANNELS 3 Xrotation Zrotation Yrotation
			JOINT rFoot
			{
				OFFSET 0.000000 -19.190928 -1.224953 
				CHANNELS 3 Xrotation Yrotation Zrotation
				End Site
				{
					OFFSET 0.000000 -2.449906 4.627600 
				}
			}
		}
	}
}
MOTION
Frames: 10
Frame Time: 0.016667
4.778505 53.233089 -0.939773 -10.814965 -2.815238 -6.248022 26.534676 1.987113 -0.629287 3.621641 1.542151 -2.783841 -8.439219 0.961189 -0.175046 13.558852 -2.230570 -4.114669 -19.059851 -10.024897 -0.529273 -60.211342 11.408540 -20.188513 -28.084087 -5.000000 25.716993 -16.456579 -2.575554 2.976409 13.912394 12.836684 -0.673028 59.294750 -7.180434 -16.354210 27.161201 5.000000 17.255333 13.498073 -22.362272 3.508777 14.186892 8.320051 10.939151 15.508848 -4.647753 -1.450951 -16.927280 5.464063 0.547122 16.461439 -12.096303 -0.886816 2.182765 3.262936 0.193748 -1.364179 -12.233802 10.182305 
5.025658 53.239185 -1.069688 -10.645365 -3.071089 -7.237057 26.631842 1.953159 -0.654198 3.627708 1.581112 -2.891228 -8.458662 0.932222 -0.170664 13.481989 -2.229750 -4.398038 -19.166174 -9.907854 -0.523234 -60.053532 11.297396 -19.956715 -28.370375 -5.000000 25.324881 -16.431799 -2.685564 2.986518 13.756025 12.826933 -0.672523 59.276379 -7.004250 -16.161158 27.105785 5.000000 17.291149 13.608265 -22.399221 3.468613 14.029338 8.016477 11.743707 15.619359 -4.619169 -1.446379 -17.035019 5.669068 0.878560 15.971949 -12.300330 -0.632881 1.796391 3.191267 0.207049 -0.900551 -11.951815 10.325495 
5.254106 53.240337 -1.202061 -10.488600 -3.305471 -8.236473 26.699095 1.875307 -0.728923 3.634697 1.629873 -2.969332 -8.438991 0.883944 -0.163361 13.407673 -2.209066 -4.788744 -19.282003 -9.761550 -0.515682 -59.934296 11.270954 -19.812965 -28.616064 -5.000000 24.953444 -16.457224 -2.796858 3.020819 13.618954 12.797679 -0.671010 59.322678 -6.890802 -16.065886 27.082758 5.000000 17.397861 13.723932 -22.446537 3.459671 13.845329 7.714915 12.558687 15.761469 -4.548732 -1.448795 -17.151344 5.805130 1.083808 15.644555 -12.450476 -0.652593 1.315668 3.155113 0.136714 -0.670484 -11.868850 10.332731 
5.482550 53.241486 -1.334433 -10.323536 -3.537634 -9.236582 26.786083 1.788261 -0.806760 3.641333 1.678621 -3.057481 -8.409417 0.837126 -0.146403 13.342846 -2.188302 -5.179828 -19.397772 -9.605496 -0.507625 -59.817348 11.240471 -19.682531 -28.847349 -5.000000 24.588785 -16.473433 -2.905878 3.063585 13.491649 12.768422 -0.669496 59.378571 -6.774865 -15.971556 27.064272 5.000000 17.495476 13.832990 -22.490993 3.445516 13.670406 7.451334 13.381656 15.899572 -4.529470 -1.438538 -17.325142 5.927576 1.351956 15.301178 -12.596066 -0.666992 0.897233 3.146866 0.109297 -0.483053 -11.729491 10.357047 
5.696831 53.241478 -1.465261 -10.156506 -3.786581 -10.237451 26.843456 1.714490 -0.890141 3.657651 1.727365 -3.145348 -8.360469 0.788848 -0.139100 13.268280 -2.147806 -5.629088 -19.523149 -9.429935 -0.498555 -59.741375 11.264276 -19.611259 -29.080400 -5.000000 24.231361 -16.471201 -3.010397 3.124564 13.344814 12.739165 -0.667982 59.437431 -6.669016 -15.893613 27.037596 5.000000 17.621161 13.947216 -22.514408 3.424200 13.481908 7.206559 14.159373 16.055618 -4.445563 -1.401624 -17.442352 6.012940 1.562784 15.056519 -12.711843 -0.879923 0.479018 3.158590 0.101726 -0.425179 -11.686794 10.282929 
5.896949 53.240326 -1.594548 -9.999439 -4.032608 -11.249563 26.900866 1.636870 -0.965333 3.664183 1.766335 -3.242972 -8.282230 0.740569 -0.131796 13.194919 -2.097221 -6.156784 -19.648476 -9.244622 -0.488977 -59.698742 11.350867 -19.607187 -29.278585 -5.000000 23.908155 -16.439814 -3.092309 3.197166 13.197980 12.709909 -0.666468 59.511417 -6.588783 -15.844896 27.017752 5.000000 17.786818 14.067198 -22.507414 3.402355 13.274334 6.971567 14.939369 16.202879 -4.348129 -1.400992 -17.589090 6.290546 1.829679 14.848203 -12.767613 -1.262006 0.166895 3.201040 0.119594 -0.559454 -11.783667 10.119920 
6.097066 53.239166 -1.723834 -9.833467 -4.275579 -12.261904 26.968147 1.564976 -1.028038 3.670637 1.805300 -3.331136 -8.203997 0.692290 -0.124492 13.119158 -2.036895 -6.674366 -19.764069 -9.059311 -0.477857 -59.656540 11.429037 -19.606001 -29.484085 -5.000000 23.578396 -16.409151 -3.183668 3.272399 13.051146 12.680655 -0.664954 59.584110 -6.495372 -15.793734 26.996344 5.000000 17.944523 14.183251 -22.502817 3.389298 13.092375 6.767248 15.734953 16.371872 -4.277728 -1.424457 -17.736320 6.400033 2.057222 14.665169 -12.849598 -1.588992 -0.185313 3.258358 0.056227 -0.686186 -11.814294 9.951724 
6.263756 53.239670 -1.846074 -9.676006 -4.610486 -13.267010 27.025021 1.586939 -1.082961 3.687162 1.834502 -3.409229 -8.076902 0.624700 -0.114267 13.074537 -1.986001 -7.240759 -19.889706 -8.903255 -0.469807 -59.656300 11.622672 -19.756454 -29.634920 -5.000000 23.360588 -16.373831 -3.227204 3.302559 12.914196 12.661151 -0.663944 59.661274 -6.462149 -15.820764 27.033978 5.000000 18.126848 14.289951 -22.479006 3.385624 12.928274 6.660153 16.499531 16.566315 -4.150552 -1.374595 -17.886164 6.604502 2.272903 14.633986 -12.789619 -2.154493 -0.272787 3.340850 0.068241 -1.095530 -11.988111 9.622154 
6.430446 53.240181 -1.968317 -9.516262 -4.941095 -14.273301 27.072336 1.605549 -1.128749 3.693942 1.853929 -3.487318 -7.939978 0.568227 -0.095847 13.039031 -1.934990 -7.817251 -20.015364 -8.747197 -0.461755 -59.665691 11.813093 -19.908842 -29.790827 -5.000000 23.141331 -16.349405 -3.276826 3.345846 12.767478 12.641645 -0.662935 59.737011 -6.423983 -15.839390 27.072531 5.000000 18.316895 14.393339 -22.448364 3.397342 12.745962 6.561035 17.276327 16.741230 -4.013535 -1.321584 -17.986002 6.794366 2.488616 14.602415 -12.729352 -2.729946 -0.360865 3.421795 0.099683 -1.520102 -12.160887 9.312018 
6.578390 53.243217 -2.085725 -9.359105 -5.313695 -15.302069 27.119440 1.673151 -1.164234 3.710673 1.883135 -3.555968 -7.783620 0.500637 -0.085621 13.003949 -1.893577 -8.393416 -20.151047 -8.620396 -0.455208 -59.693714 12.052716 -20.147739 -29.904108 -5.000000 22.981150 -16.303318 -3.314395 3.363257 12.632897 12.639510 -0.672233 59.785809 -6.390225 -15.867953 27.139399 5.000000 18.485210 14.496734 -22.417831 3.405464 12.620461 6.532413 18.045525 16.901070 -3.888397 -1.287755 -18.122097 7.008626 2.677499 14.637547 -12.607288 -3.314150 -0.312230 3.494707 0.081961 -1.962899 -12.318803 9.012389 
